<?xml version="1.0" encoding="UTF-8"?>
<svg id="Calque_1" data-name="Calque 1" xmlns="http://www.w3.org/2000/svg" version="1.1" viewBox="0 0 35 35">
  <defs>
    <style>
      .cls-1 {
        fill: #000;
        stroke-width: 0px;
      }
    </style>
  </defs>
  <path class="cls-1" d="M29.4,34.7h-4.2c-2.2,0-4-1.8-4-4v-8.9c0-1.1-.9-2-2-2h-3.3c-1.1,0-2,.9-2,2v8.9c0,2.2-1.8,4-4,4h-4.2c-2.2,0-4-1.8-4-4v-14.4c0-1.1.4-2.1,1.2-2.8L14.7,1.5c1.6-1.6,4.1-1.6,5.7,0l11.9,11.9c.8.8,1.2,1.8,1.2,2.8v14.4c0,2.2-1.8,4-4,4ZM15.8,17.7h3.3c2.2,0,4,1.8,4,4v8.9c0,1.1.9,2,2,2h4.2c1.1,0,2-.9,2-2v-14.4c0-.5-.2-1-.6-1.4L18.9,2.9c-.8-.8-2.1-.8-2.9,0L4.1,14.8c-.4.4-.6.9-.6,1.4v14.4c0,1.1.9,2,2,2h4.2c1.1,0,2-.9,2-2v-8.9c0-2.2,1.8-4,4-4Z"/>
</svg>