<?xml version="1.0" encoding="UTF-8"?>
<svg id="Calque_1" data-name="Calque 1" xmlns="http://www.w3.org/2000/svg" version="1.1" viewBox="0 0 35 35">
  <defs>
    <style>
      .cls-1 {
        fill: #000;
        stroke-width: 0px;
      }
    </style>
  </defs>
  <path class="cls-1" d="M29.6,34.8c-.2,0-.3,0-.5,0C14.2,32.6,2.4,20.8.3,5.9c-.2-1.2.3-2.4,1.1-3.3l1.2-1.2C3.4.6,4.4.2,5.5.2h3.3c1.6,0,3.1,1,3.7,2.5l1.9,4.9c.5,1.2.3,2.6-.4,3.7l-1.2,1.8c-.4.7-.4,1.5,0,2.2,1.8,2.7,4.1,5,6.8,6.8.7.4,1.5.4,2.2,0l1.9-1.2c1.1-.7,2.5-.9,3.7-.4l4.9,1.9c1.5.6,2.5,2.1,2.5,3.7v3.3c0,1.1-.4,2.1-1.2,2.8l-1.2,1.2c-.8.8-1.8,1.2-2.8,1.2ZM5.5,2.2c-.5,0-1,.2-1.4.6l-1.2,1.2c-.4.4-.7,1.1-.6,1.6,2,14,13.1,25.1,27.1,27.1.6,0,1.2-.1,1.6-.6l1.2-1.2c.4-.4.6-.9.6-1.4v-3.3c0-.8-.5-1.6-1.3-1.9l-4.9-1.9c-.6-.2-1.3-.2-1.8.2l-1.8,1.2c-1.3.9-3.1.9-4.4,0-2.9-2-5.4-4.4-7.4-7.4-.9-1.3-.9-3.1,0-4.4l1.2-1.8c.4-.5.4-1.2.2-1.8l-1.9-4.9c-.3-.8-1-1.3-1.9-1.3h-3.3Z"/>
</svg>