<?xml version="1.0" encoding="UTF-8"?>
<svg id="Calque_1" data-name="Calque 1" xmlns="http://www.w3.org/2000/svg" version="1.1" viewBox="0 0 35 35">
  <defs>
    <style>
      .cls-1 {
        fill: #000;
        stroke-width: 0px;
      }
    </style>
  </defs>
  <path class="cls-1" d="M29.3,34.9c-.2,0-.4,0-.6,0C14,32.8,2.2,21,.2,6.3,0,5,.5,3.6,1.4,2.6l1.2-1.2C3.5.6,4.6.1,5.8.1h3.2c1.8,0,3.4,1.1,4.1,2.8l1.9,4.7c.5,1.3.4,2.9-.4,4.1l-1.2,1.8c-.3.5-.3,1.1,0,1.6,1.7,2.6,3.9,4.8,6.5,6.5.5.3,1.1.3,1.6,0l1.8-1.2c1.2-.8,2.7-.9,4.1-.4l4.7,1.9c1.7.7,2.8,2.3,2.8,4.1v3.2c0,1.2-.5,2.3-1.3,3.1l-1.2,1.2c-.8.8-2,1.3-3.1,1.3ZM5.8,3.1c-.4,0-.7.1-1,.4l-1.2,1.2c-.3.3-.5.7-.4,1.2,1.9,13.4,12.6,24.1,26,26,.4,0,.8,0,1.2-.4l1.2-1.2c.3-.3.4-.6.4-1v-3.2c0-.6-.4-1.1-.9-1.3l-4.7-1.9c-.4-.2-.9-.1-1.3.1l-1.8,1.2c-1.5,1-3.4,1-4.9,0-2.9-2-5.4-4.4-7.3-7.3-1-1.5-1-3.4,0-4.9l1.2-1.8c.3-.4.3-.9.1-1.3l-1.9-4.7c-.2-.5-.7-.9-1.3-.9h-3.2Z"/>
</svg>