<?xml version="1.0" encoding="UTF-8"?>
<svg id="Calque_1" data-name="Calque 1" xmlns="http://www.w3.org/2000/svg" version="1.1" viewBox="0 0 35 35">
  <defs>
    <style>
      .cls-1 {
        fill: #000;
        stroke-width: 0px;
      }
    </style>
  </defs>
  <path class="cls-1" d="M8.7,34.6c-.8,0-1.6-.2-2.4-.6-1.5-.9-2.3-2.4-2.3-4.1V5.1c0-1.7.9-3.2,2.3-4.1,1.5-.9,3.2-.9,4.7,0l21.6,12.4c1.5.8,2.4,2.4,2.4,4.1s-.9,3.2-2.4,4.1l-21.6,12.4c-.7.4-1.5.6-2.3.6ZM8.7,2.4c-.5,0-.9.1-1.4.4-.8.5-1.3,1.4-1.3,2.3v24.7c0,1,.5,1.9,1.3,2.3.8.5,1.9.5,2.7,0l21.6-12.4c.9-.5,1.4-1.4,1.4-2.4s-.5-1.9-1.4-2.4L10,2.8c-.4-.2-.9-.4-1.3-.4Z"/>
</svg>