<?xml version="1.0" encoding="UTF-8"?>
<svg id="Calque_1" data-name="Calque 1" xmlns="http://www.w3.org/2000/svg" version="1.1" viewBox="0 0 35 35">
  <defs>
    <style>
      .cls-1 {
        fill: #000;
        stroke-width: 0px;
      }
    </style>
  </defs>
  <path class="cls-1" d="M17.5,17.6c-4.8,0-8.6-3.9-8.6-8.6S12.7.4,17.5.4s8.6,3.9,8.6,8.6-3.9,8.6-8.6,8.6ZM17.5,2.4c-3.6,0-6.6,3-6.6,6.6s3,6.6,6.6,6.6,6.6-3,6.6-6.6-3-6.6-6.6-6.6Z"/>
  <path class="cls-1" d="M32.8,34.7h-2v-6.4c0-.5-.2-1-.6-1.4l-3.5-3.5c-.5-.5-1.3-.7-2.1-.5l-5.9,2c-.8.3-1.7.3-2.5,0l-5.9-2c-.7-.2-1.5,0-2.1.5l-3.5,3.5c-.4.4-.6.9-.6,1.4v6.4h-2v-6.4c0-1.1.4-2.1,1.2-2.8l3.5-3.5c1.1-1.1,2.7-1.5,4.1-1l5.9,2c.4.1.9.1,1.3,0l5.9-2c1.5-.5,3-.1,4.1,1l3.5,3.5c.8.8,1.2,1.8,1.2,2.8v6.4Z"/>
</svg>